<svg width="1200" height="900" viewBox="0 0 1200 900" fill="none" xmlns="http://www.w3.org/2000/svg">
  <rect width="1200" height="900" rx="48" fill="#F4F1EA"/>
  <rect x="40" y="40" width="1120" height="820" rx="36" fill="#FFFDF8" stroke="#E5D9C8"/>
  <rect x="86" y="92" width="1028" height="160" rx="30" fill="#102131"/>
  <rect x="128" y="138" width="190" height="18" rx="9" fill="#93D1FF" fill-opacity="0.7"/>
  <rect x="128" y="174" width="438" height="56" rx="18" fill="#FFFFFF" fill-opacity="0.1"/>
  <rect x="776" y="126" width="290" height="92" rx="26" fill="#16324C"/>
  <rect x="86" y="286" width="320" height="236" rx="28" fill="#FFF7E5" stroke="#EDD291"/>
  <rect x="438" y="286" width="320" height="236" rx="28" fill="#FFF7E5" stroke="#EDD291"/>
  <rect x="790" y="286" width="324" height="236" rx="28" fill="#FFF7E5" stroke="#EDD291"/>
  <rect x="86" y="560" width="484" height="238" rx="30" fill="#F2E8D9"/>
  <rect x="602" y="560" width="512" height="238" rx="30" fill="#102131"/>
  <rect x="118" y="334" width="256" height="138" rx="20" fill="#FFFFFF"/>
  <rect x="470" y="334" width="256" height="138" rx="20" fill="#FFFFFF"/>
  <rect x="822" y="334" width="260" height="138" rx="20" fill="#FFFFFF"/>
  <rect x="640" y="604" width="240" height="18" rx="9" fill="#A3D7FF" fill-opacity="0.72"/>
  <rect x="640" y="640" width="328" height="48" rx="16" fill="#FFFFFF" fill-opacity="0.08"/>
  <rect x="640" y="710" width="208" height="44" rx="22" fill="#FFB627"/>
</svg>
